<?xml version="1.0" standalone="no"?>
<svg xmlns="http://www.w3.org/2000/svg" viewBox="0 0 271.55207382224376 86.4720738222438" width="271.55207382224376" height="86.4720738222438"><rect fill="#0019ff" width="271.55207382224376" height="86.4720738222438" x="0" y="0"></rect><g fill="white" color="white" transform="translate(12 12) scale(0.9761262)"><svg width="64.0" height="64.0" x="0.0" y="0.0" viewBox="0 0 64 64"><g><path d="M31.999,62.59c-16.867,0-30.59-13.723-30.59-30.59S15.132,1.41,31.999,1.41S62.589,15.133,62.589,32   S48.866,62.59,31.999,62.59z M31.999,3.41C16.234,3.41,3.409,16.235,3.409,32s12.825,28.59,28.59,28.59S60.589,47.765,60.589,32   S47.764,3.41,31.999,3.41z"></path><polygon points="60.622,36.032 52.412,25.851 53.351,12.534 55.345,12.674 54.463,25.207 62.179,34.776  "></polygon><path d="M40.95,46.335L22.107,43.44l-4.166-14.403l11.355-13.2l17.489,11.448L40.95,46.335z M23.673,41.657l15.871,2.438   l4.89-15.959l-14.766-9.665l-9.505,11.05L23.673,41.657z"></path><rect x="48.523" y="22.556" transform="matrix(0.2685 0.9633 -0.9633 0.2685 61.8669 -28.2332)" width="2" height="8.126"></rect><polygon points="18.464,29.724 9.866,24.932 10.464,10.647 12.462,10.731 11.916,23.784 19.438,27.977  "></polygon><polygon points="29.819,10.916 18.988,6.139 19.794,4.309 29.835,8.737 42.256,3.469 43.037,5.31  "></polygon><polygon points="41.78,60.685 40.009,59.757 45.311,49.633 57.281,45.918 57.874,47.828 46.697,51.297  "></polygon><polygon points="23.636,60.688 17.468,48.987 5.942,47.286 6.234,45.308 18.764,47.157 25.406,59.754  "></polygon><rect x="5.786" y="22.534" transform="matrix(0.6704 0.742 -0.742 0.6704 23.0606 4.2149)" width="2" height="11.065"></rect><rect x="19.503" y="41.66" transform="matrix(0.7563 0.6542 -0.6542 0.7563 34.641 -2.3712)" width="2" height="7.301"></rect><rect x="39.23" y="46.84" transform="matrix(0.7389 0.6738 -0.6738 0.7389 43.4915 -16.568)" width="7.792" height="2.001"></rect><rect x="28.654" y="9.822" transform="matrix(0.9989 0.0469 -0.0469 0.9989 0.6649 -1.3751)" width="2" height="7.336"></rect></g></svg></g><path fill="white" fill-rule="nonzero" d="M11.64 11.88L11.76 10.36Q12.64 10.28 12.96 10.28Q13.28 10.28 14.00 10.40L14.00 10.40Q13.96 11.60 13.96 13.44Q13.96 15.28 14.00 16.16L14.00 16.16Q13.40 16.28 12.84 16.28Q12.28 16.28 11.76 16.20L11.76 16.20L11.64 14.80Q9.48 14.72 8.32 14.72Q7.16 14.72 4.92 14.80L4.92 14.80Q5 20.88 5.28 23.88L5.28 23.88L7.48 24.04L7.56 25Q7.56 25.64 7.44 26.24L7.44 26.24Q6.40 26.20 3.70 26.20Q1 26.20 0.16 26.24L0.16 26.24Q0.04 25.64 0.04 25.10Q0.04 24.56 0.12 24L0.12 24L1.60 23.88Q1.92 19.96 1.92 13.80Q1.92 7.64 1.44 2.96L1.44 2.96L0.08 2.84Q0 2.32 0 1.76Q0 1.20 0.12 0.60L0.12 0.60Q1.12 0.64 7.24 0.64Q13.36 0.64 15.16 0.28L15.16 0.28L15.36 0.48Q15.04 4 15.00 6.16L15.00 6.16Q14.60 6.20 14.00 6.20Q13.40 6.20 12.76 6.08L12.76 6.08L12.64 3.36Q10.60 3.24 8.66 3.24Q6.72 3.24 5.16 3.36L5.16 3.36Q4.92 6 4.92 12.04L4.92 12.04L6.88 12.04Q9.08 12.04 11.64 11.88L11.64 11.88ZM18.76 13.12L18.76 13.12Q18.76 0 28.58 0Q38.40 0 38.40 13.12L38.40 13.12Q38.40 15.52 38.22 17.32Q38.04 19.12 37.42 21Q36.80 22.88 35.76 24.08Q34.72 25.28 32.90 26.04Q31.08 26.80 28.58 26.80Q26.08 26.80 24.26 26.04Q22.44 25.28 21.40 24.08Q20.36 22.88 19.74 21Q19.12 19.12 18.94 17.32Q18.76 15.52 18.76 13.12ZM25.20 22.96L25.20 22.96Q26.56 23.84 28.58 23.84Q30.60 23.84 31.98 22.96Q33.36 22.08 34.04 20.44L34.04 20.44Q35.24 17.60 35.24 13.16L35.24 13.16Q35.24 2.36 28.58 2.36Q21.92 2.36 21.92 13.16L21.92 13.16Q21.92 20.88 25.20 22.96ZM42.80 13.12L42.80 13.12Q42.80 0 52.62 0Q62.44 0 62.44 13.12L62.44 13.12Q62.44 15.52 62.26 17.32Q62.08 19.12 61.46 21Q60.84 22.88 59.80 24.08Q58.76 25.28 56.94 26.04Q55.12 26.80 52.62 26.80Q50.12 26.80 48.30 26.04Q46.48 25.28 45.44 24.08Q44.40 22.88 43.78 21Q43.16 19.12 42.98 17.32Q42.80 15.52 42.80 13.12ZM49.24 22.96L49.24 22.96Q50.60 23.84 52.62 23.84Q54.64 23.84 56.02 22.96Q57.40 22.08 58.08 20.44L58.08 20.44Q59.28 17.60 59.28 13.16L59.28 13.16Q59.28 2.36 52.62 2.36Q45.96 2.36 45.96 13.16L45.96 13.16Q45.96 20.88 49.24 22.96ZM75.92 3.24L75.92 3.24Q75.64 6.36 75.64 13.26Q75.64 20.16 75.96 23.88L75.96 23.88L78.28 24.12Q78.36 24.76 78.36 25.14Q78.36 25.52 78.24 26.24L78.24 26.24Q76.80 26.20 74.10 26.20Q71.40 26.20 70.16 26.24L70.16 26.24Q70.04 25.64 70.04 25.24Q70.04 24.84 70.12 24.12L70.12 24.12L72.32 23.88Q72.64 19.60 72.64 13.02Q72.64 6.44 72.28 3.24L72.28 3.24Q70.72 3.28 67.96 3.52L67.96 3.52L67.84 6.48Q67.20 6.60 66.64 6.60Q66.08 6.60 65.60 6.56L65.60 6.56Q65.48 3.28 65.24 0.48L65.24 0.48L65.44 0.28Q68.40 0.64 74.92 0.64Q81.44 0.64 83.08 0.28L83.08 0.28L83.28 0.48Q83.00 3.56 82.92 6.16L82.92 6.16Q82.44 6.20 81.90 6.20Q81.36 6.20 80.68 6.08L80.68 6.08L80.56 3.40Q78.88 3.32 75.92 3.24ZM86.60 23.88L88.20 23.76Q88.56 19.68 88.56 12.94Q88.56 6.20 88.16 3.04L88.16 3.04L86.60 2.92Q86.48 2.44 86.48 1.68Q86.48 0.92 86.52 0.68L86.52 0.68Q89.08 0.64 91.08 0.32Q93.08 0 95.32 0L95.32 0Q99.36 0 101.46 1.86Q103.56 3.72 103.56 7.48Q103.56 11.24 101 13.16L101 13.16Q105.28 14.88 105.28 19.28L105.28 19.28Q105.28 23 102.96 24.90Q100.64 26.80 96.12 26.80L96.12 26.80Q93.60 26.80 91.44 26.48L91.44 26.48Q87.64 26.20 86.52 26.12L86.52 26.12Q86.48 25.88 86.48 25.16Q86.48 24.44 86.60 23.88L86.60 23.88ZM93.88 11.32L93.88 11.32Q94.76 11.92 96.46 11.92Q98.16 11.92 99.12 10.78Q100.08 9.64 100.08 7.34Q100.08 5.04 98.80 3.66Q97.52 2.28 95.16 2.28L95.16 2.28Q93.68 2.28 91.88 3L91.88 3Q91.56 6.32 91.56 12.68Q91.56 19.04 91.88 23.12L91.88 23.12Q94.24 24.04 96.16 24.04L96.16 24.04Q101.80 24.04 101.80 19.28L101.80 19.28Q101.80 15.28 98.08 14.40L98.08 14.40Q96.88 14.60 95.74 14.60Q94.60 14.60 93.04 14.00L93.04 14.00Q93.04 12.16 93.88 11.32ZM113.04 2.92Q112.92 2.44 112.92 1.68Q112.92 0.92 112.96 0.68L112.96 0.68Q116.48 0.24 118.20 0.24Q119.92 0.24 121.12 0.64L121.12 0.64Q122.08 8.16 127.80 23.88L127.80 23.88L129.28 24Q129.36 24.88 129.36 25.22Q129.36 25.56 129.24 26.24L129.24 26.24Q128.12 26.20 125.76 26.20Q123.40 26.20 122.48 26.24L122.48 26.24Q122.36 25.64 122.36 25.10Q122.36 24.56 122.44 24L122.44 24L123.84 23.88Q123.64 22.92 123.20 21.10Q122.76 19.28 122.72 19.08L122.72 19.08Q120.44 18.96 117.78 18.96Q115.12 18.96 112.80 19.12L112.80 19.12L111.68 23.88L113.20 24Q113.28 24.88 113.28 25.22Q113.28 25.56 113.16 26.24L113.16 26.24Q112.20 26.20 110.02 26.20Q107.84 26.20 106.96 26.24L106.96 26.24Q106.84 25.64 106.84 25.10Q106.84 24.56 106.92 24L106.92 24L108.32 23.88Q113.12 10.72 114.64 3.04L114.64 3.04L113.04 2.92ZM113.52 16.32L113.52 16.32Q114.88 16.36 117.60 16.36Q120.32 16.36 122 16.24L122 16.24Q120.12 9.12 118.04 3.08L118.04 3.08L117.80 3.08Q115.44 8.80 113.52 16.32ZM132 24L133.40 23.88Q133.76 18.36 133.76 12.24Q133.76 6.12 133.40 2.84L133.40 2.84L132.04 2.72Q131.96 2.08 131.96 1.62Q131.96 1.16 132.08 0.48L132.08 0.48Q133.48 0.52 135.32 0.52Q137.16 0.52 138.52 0.48L138.52 0.48Q138.64 1.08 138.64 1.54Q138.64 2 138.56 2.72L138.56 2.72L137.04 2.84Q136.76 6.60 136.76 13.18Q136.76 19.76 137.04 23.16L137.04 23.16Q138.28 23.28 140.66 23.28Q143.04 23.28 144.28 23.08L144.28 23.08L144.40 20.36Q145.08 20.24 145.62 20.24Q146.16 20.24 146.64 20.28L146.64 20.28Q146.76 23.32 147 26.20L147 26.20L146.80 26.40Q144.92 26.20 139.16 26.20Q133.40 26.20 132.04 26.24L132.04 26.24Q131.92 25.64 131.92 25.18Q131.92 24.72 132 24L132 24ZM149.72 24L151.12 23.88Q151.48 18.36 151.48 12.24Q151.48 6.12 151.12 2.84L151.12 2.84L149.76 2.72Q149.68 2.08 149.68 1.62Q149.68 1.16 149.80 0.48L149.80 0.48Q151.20 0.52 153.04 0.52Q154.88 0.52 156.24 0.48L156.24 0.48Q156.36 1.08 156.36 1.54Q156.36 2 156.28 2.72L156.28 2.72L154.76 2.84Q154.48 6.60 154.48 13.18Q154.48 19.76 154.76 23.16L154.76 23.16Q156 23.28 158.38 23.28Q160.76 23.28 162 23.08L162 23.08L162.12 20.36Q162.80 20.24 163.34 20.24Q163.88 20.24 164.36 20.28L164.36 20.28Q164.48 23.32 164.72 26.20L164.72 26.20L164.52 26.40Q162.64 26.20 156.88 26.20Q151.12 26.20 149.76 26.24L149.76 26.24Q149.64 25.64 149.64 25.18Q149.64 24.72 149.72 24L149.72 24Z" transform="translate(89.473 12) scale(1.033)"></path><path fill="white" fill-rule="nonzero" d="M7.36 12.96L7.36 12.96Q8.52 14.12 10.14 14.12Q11.76 14.12 12.76 13.12L12.76 13.12Q14.36 11.48 14.36 8.24L14.36 8.24Q14.36 2.28 9.08 2.28L9.08 2.28Q7.40 2.28 5.32 3.16L5.32 3.16Q5.04 6.32 5.04 13.00Q5.04 19.68 5.40 23.88L5.40 23.88L7.68 24.04Q7.76 24.68 7.76 25.20Q7.76 25.72 7.64 26.24L7.64 26.24Q6.20 26.20 3.90 26.20Q1.60 26.20 0.36 26.24L0.36 26.24Q0.24 25.64 0.24 25.18Q0.24 24.72 0.32 24L0.32 24L1.72 23.88Q2.04 19.60 2.04 12.94Q2.04 6.28 1.64 3.04L1.64 3.04L0.12 2.92Q0 2.36 0 1.68Q0 1 0.04 0.68L0.04 0.68Q1.72 0.60 4.64 0.32L4.64 0.32Q6.68 0 9.12 0L9.12 0Q13.84 0 15.84 2.14Q17.84 4.28 17.84 8.14Q17.84 12.00 15.82 14.40Q13.80 16.80 9.68 16.80L9.68 16.80Q8.08 16.80 6.52 16.20L6.52 16.20Q6.52 15.12 6.80 14.20Q7.08 13.28 7.36 12.96ZM21.32 24L22.72 23.88Q23.08 18.36 23.08 12.24Q23.08 6.12 22.72 2.84L22.72 2.84L21.36 2.72Q21.28 2.08 21.28 1.62Q21.28 1.16 21.40 0.48L21.40 0.48Q22.80 0.52 24.64 0.52Q26.48 0.52 27.84 0.48L27.84 0.48Q27.96 1.08 27.96 1.54Q27.96 2 27.88 2.72L27.88 2.72L26.36 2.84Q26.08 6.60 26.08 13.18Q26.08 19.76 26.36 23.16L26.36 23.16Q27.60 23.28 29.98 23.28Q32.36 23.28 33.60 23.08L33.60 23.08L33.72 20.36Q34.40 20.24 34.94 20.24Q35.48 20.24 35.96 20.28L35.96 20.28Q36.08 23.32 36.32 26.20L36.32 26.20L36.12 26.40Q34.24 26.20 28.48 26.20Q22.72 26.20 21.36 26.24L21.36 26.24Q21.24 25.64 21.24 25.18Q21.24 24.72 21.32 24L21.32 24ZM42.52 2.92Q42.40 2.44 42.40 1.68Q42.40 0.92 42.44 0.68L42.44 0.68Q45.96 0.24 47.68 0.24Q49.40 0.24 50.60 0.64L50.60 0.64Q51.56 8.16 57.28 23.88L57.28 23.88L58.76 24Q58.84 24.88 58.84 25.22Q58.84 25.56 58.72 26.24L58.72 26.24Q57.60 26.20 55.24 26.20Q52.88 26.20 51.96 26.24L51.96 26.24Q51.84 25.64 51.84 25.10Q51.84 24.56 51.92 24L51.92 24L53.32 23.88Q53.12 22.92 52.68 21.10Q52.24 19.28 52.20 19.08L52.20 19.08Q49.92 18.96 47.26 18.96Q44.60 18.96 42.28 19.12L42.28 19.12L41.16 23.88L42.68 24Q42.76 24.88 42.76 25.22Q42.76 25.56 42.64 26.24L42.64 26.24Q41.68 26.20 39.50 26.20Q37.32 26.20 36.44 26.24L36.44 26.24Q36.32 25.64 36.32 25.10Q36.32 24.56 36.40 24L36.40 24L37.80 23.88Q42.60 10.72 44.12 3.04L44.12 3.04L42.52 2.92ZM43 16.32L43 16.32Q44.36 16.36 47.08 16.36Q49.80 16.36 51.48 16.24L51.48 16.24Q49.60 9.12 47.52 3.08L47.52 3.08L47.28 3.08Q44.92 8.80 43 16.32ZM78.12 20.40L78.12 20.40Q78.24 17.04 78.24 11.60Q78.24 6.16 77.88 2.84L77.88 2.84L76.40 2.72Q76.32 2.08 76.32 1.62Q76.32 1.16 76.44 0.48L76.44 0.48Q77.72 0.52 79.38 0.52Q81.04 0.52 82.28 0.48L82.28 0.48Q82.40 1.08 82.40 1.54Q82.40 2 82.32 2.72L82.32 2.72L80.92 2.84Q80.64 6.08 80.64 15.02Q80.64 23.96 81.32 26.12L81.32 26.12Q80.12 26.52 79.58 26.52Q79.04 26.52 77.68 26.44L77.68 26.44Q77.40 25.20 75.32 21.94Q73.24 18.68 70.14 14.16Q67.04 9.64 65.68 7.40L65.68 7.40Q65.64 9.12 65.64 14.40Q65.64 19.68 66 23.88L66 23.88L67.48 24Q67.56 24.64 67.56 25.10Q67.56 25.56 67.44 26.24L67.44 26.24Q66.16 26.20 64.48 26.20Q62.80 26.20 61.56 26.24L61.56 26.24Q61.44 25.64 61.44 25.18Q61.44 24.72 61.52 24L61.52 24L62.92 23.88Q63.24 19.56 63.24 12.94Q63.24 6.32 62.88 3.04L62.88 3.04L61.32 2.92Q61.20 2.36 61.20 1.68Q61.20 1 61.24 0.68L61.24 0.68Q64.64 0.60 66.28 0.48L66.28 0.48Q67.04 3.36 70.60 9.12Q74.16 14.88 78.12 20.40ZM104.12 20.40L104.12 20.40Q104.24 17.04 104.24 11.60Q104.24 6.16 103.88 2.84L103.88 2.84L102.40 2.72Q102.32 2.08 102.32 1.62Q102.32 1.16 102.44 0.48L102.44 0.48Q103.72 0.52 105.38 0.52Q107.04 0.52 108.28 0.48L108.28 0.48Q108.40 1.08 108.40 1.54Q108.40 2 108.32 2.72L108.32 2.72L106.92 2.84Q106.64 6.08 106.64 15.02Q106.64 23.96 107.32 26.12L107.32 26.12Q106.12 26.52 105.58 26.52Q105.04 26.52 103.68 26.44L103.68 26.44Q103.40 25.20 101.32 21.94Q99.24 18.68 96.14 14.16Q93.04 9.64 91.68 7.40L91.68 7.40Q91.64 9.12 91.64 14.40Q91.64 19.68 92 23.88L92 23.88L93.48 24Q93.56 24.64 93.56 25.10Q93.56 25.56 93.44 26.24L93.44 26.24Q92.16 26.20 90.48 26.20Q88.80 26.20 87.56 26.24L87.56 26.24Q87.44 25.64 87.44 25.18Q87.44 24.72 87.52 24L87.52 24L88.92 23.88Q89.24 19.56 89.24 12.94Q89.24 6.32 88.88 3.04L88.88 3.04L87.32 2.92Q87.20 2.36 87.20 1.68Q87.20 1 87.24 0.68L87.24 0.68Q90.64 0.60 92.28 0.48L92.28 0.48Q93.04 3.36 96.60 9.12Q100.16 14.88 104.12 20.40ZM120.40 2.72L118.88 2.84Q118.60 6.08 118.60 12.88Q118.60 19.68 118.96 23.88L118.96 23.88L120.40 24Q120.48 24.64 120.48 25.10Q120.48 25.56 120.36 26.24L120.36 26.24Q118.96 26.20 117.12 26.20Q115.28 26.20 113.92 26.24L113.92 26.24Q113.80 25.64 113.80 25.18Q113.80 24.72 113.88 24L113.88 24L115.28 23.88Q115.60 19.56 115.60 12.86Q115.60 6.16 115.24 2.84L115.24 2.84L113.88 2.72Q113.80 2.08 113.80 1.62Q113.80 1.16 113.92 0.48L113.92 0.48Q115.32 0.52 117.16 0.52Q119 0.52 120.36 0.48L120.36 0.48Q120.48 1.08 120.48 1.54Q120.48 2 120.40 2.72L120.40 2.72ZM142.80 20.40L142.80 20.40Q142.92 17.04 142.92 11.60Q142.92 6.16 142.56 2.84L142.56 2.84L141.08 2.72Q141 2.08 141 1.62Q141 1.16 141.12 0.48L141.12 0.48Q142.40 0.52 144.06 0.52Q145.72 0.52 146.96 0.48L146.96 0.48Q147.08 1.08 147.08 1.54Q147.08 2 147 2.72L147 2.72L145.60 2.84Q145.32 6.08 145.32 15.02Q145.32 23.96 146 26.12L146 26.12Q144.80 26.52 144.26 26.52Q143.72 26.52 142.36 26.44L142.36 26.44Q142.08 25.20 140 21.94Q137.92 18.68 134.82 14.16Q131.72 9.64 130.36 7.40L130.36 7.40Q130.32 9.12 130.32 14.40Q130.32 19.68 130.68 23.88L130.68 23.88L132.16 24Q132.24 24.64 132.24 25.10Q132.24 25.56 132.12 26.24L132.12 26.24Q130.84 26.20 129.16 26.20Q127.48 26.20 126.24 26.24L126.24 26.24Q126.12 25.64 126.12 25.18Q126.12 24.72 126.20 24L126.20 24L127.60 23.88Q127.92 19.56 127.92 12.94Q127.92 6.32 127.56 3.04L127.56 3.04L126.00 2.92Q125.88 2.36 125.88 1.68Q125.88 1 125.92 0.68L125.92 0.68Q129.32 0.60 130.96 0.48L130.96 0.48Q131.72 3.36 135.28 9.12Q138.84 14.88 142.80 20.40ZM169.68 24.16L169.68 24.16Q166.12 26.80 161.28 26.80Q156.44 26.80 154.06 23.52Q151.68 20.24 151.68 13.48L151.68 13.48Q151.68 0 161.72 0L161.72 0Q164.52 0 166.48 1.10Q168.44 2.20 169.28 4.24L169.28 4.24Q169.52 4.96 169.52 5.80L169.52 5.80Q169.52 8.20 167.44 8.20L167.44 8.20Q166.20 8.20 165.52 7.44Q164.84 6.68 164.84 5.48Q164.84 4.28 165.32 3.60L165.32 3.60Q164.04 2.36 161.72 2.36L161.72 2.36Q158.40 2.36 156.68 5.10Q154.96 7.84 154.96 13.16L154.96 13.16Q154.96 23.84 161.60 23.84L161.60 23.84Q164.84 23.84 167.08 22L167.08 22Q167.04 18.80 166.80 16.52L166.80 16.52Q162 16.68 160.36 16.96L160.36 16.96Q160.16 15.88 160.16 14.88Q160.16 13.88 160.20 13.52L160.20 13.52Q162.24 13.84 165.32 13.84Q168.40 13.84 170.08 13.72L170.08 13.72Q169.68 17.96 169.68 24.16Z" transform="translate(89.473 47.673) scale(1)"></path></svg>