<?xml version="1.0" standalone="no"?>
<svg xmlns="http://www.w3.org/2000/svg" viewBox="0 0 299.58604187437686 95.22604187437688" width="299.58604187437686" height="95.22604187437688"><rect fill="#0b0cac" width="299.58604187437686" height="95.22604187437688" x="0" y="0"></rect><g fill="white" color="white" transform="translate(12 12) scale(1.112907)"><svg width="64.0" height="64.0" x="0.0" y="0.0" viewBox="0 0 64 64"><g><path d="M31.999,62.59c-16.867,0-30.59-13.723-30.59-30.59S15.132,1.41,31.999,1.41S62.589,15.133,62.589,32   S48.866,62.59,31.999,62.59z M31.999,3.41C16.234,3.41,3.409,16.235,3.409,32s12.825,28.59,28.59,28.59S60.589,47.765,60.589,32   S47.764,3.41,31.999,3.41z"></path><polygon points="60.622,36.032 52.412,25.851 53.351,12.534 55.345,12.674 54.463,25.207 62.179,34.776  "></polygon><path d="M40.95,46.335L22.107,43.44l-4.166-14.403l11.355-13.2l17.489,11.448L40.95,46.335z M23.673,41.657l15.871,2.438   l4.89-15.959l-14.766-9.665l-9.505,11.05L23.673,41.657z"></path><rect x="48.523" y="22.556" transform="matrix(0.2685 0.9633 -0.9633 0.2685 61.8669 -28.2332)" width="2" height="8.126"></rect><polygon points="18.464,29.724 9.866,24.932 10.464,10.647 12.462,10.731 11.916,23.784 19.438,27.977  "></polygon><polygon points="29.819,10.916 18.988,6.139 19.794,4.309 29.835,8.737 42.256,3.469 43.037,5.31  "></polygon><polygon points="41.78,60.685 40.009,59.757 45.311,49.633 57.281,45.918 57.874,47.828 46.697,51.297  "></polygon><polygon points="23.636,60.688 17.468,48.987 5.942,47.286 6.234,45.308 18.764,47.157 25.406,59.754  "></polygon><rect x="5.786" y="22.534" transform="matrix(0.6704 0.742 -0.742 0.6704 23.0606 4.2149)" width="2" height="11.065"></rect><rect x="19.503" y="41.66" transform="matrix(0.7563 0.6542 -0.6542 0.7563 34.641 -2.3712)" width="2" height="7.301"></rect><rect x="39.23" y="46.84" transform="matrix(0.7389 0.6738 -0.6738 0.7389 43.4915 -16.568)" width="7.792" height="2.001"></rect><rect x="28.654" y="9.822" transform="matrix(0.9989 0.0469 -0.0469 0.9989 0.6649 -1.3751)" width="2" height="7.336"></rect></g></svg></g><path fill="white" fill-rule="nonzero" d="M18.76 0.24L18.76 5.20L8.72 5.20Q6.96 5.20 6.26 5.88Q5.56 6.56 5.56 8.24L5.56 8.24L5.56 12.20L16 12.20L15.60 17.16L5.56 17.16L5.56 28.72L0 28.72L0 6.04Q0 2.88 1.38 1.56Q2.76 0.24 6.12 0.24L6.12 0.24L18.76 0.24ZM44.48 13.16L44.48 13.16L44.48 15.32Q44.48 22.48 41.78 25.72Q39.08 28.96 33.12 28.96Q27.16 28.96 24.50 25.72Q21.84 22.48 21.84 15.20L21.84 15.20L21.84 13.12Q21.84 6.48 24.54 3.24Q27.24 0 33.10 0Q38.96 0 41.72 3.28Q44.48 6.56 44.48 13.16ZM38.92 15.20L38.92 15.20L38.92 13.72Q38.92 9.88 37.96 7.60L37.96 7.60Q36.84 4.96 33.16 4.96L33.16 4.96Q29.44 4.96 28.32 7.60L28.32 7.60Q27.40 9.76 27.40 13.72L27.40 13.72L27.40 15.20Q27.40 20.36 28.84 22.16L28.84 22.16Q29.40 22.92 30.50 23.46Q31.60 24 33.14 24Q34.68 24 35.76 23.48Q36.84 22.96 37.44 22.20Q38.04 21.44 38.36 20.20L38.36 20.20Q38.92 18.24 38.92 15.20ZM70.24 13.16L70.24 13.16L70.24 15.32Q70.24 22.48 67.54 25.72Q64.84 28.96 58.88 28.96Q52.92 28.96 50.26 25.72Q47.60 22.48 47.60 15.20L47.60 15.20L47.60 13.12Q47.60 6.48 50.30 3.24Q53.00 0 58.86 0Q64.72 0 67.48 3.28Q70.24 6.56 70.24 13.16ZM64.68 15.20L64.68 15.20L64.68 13.72Q64.68 9.88 63.72 7.60L63.72 7.60Q62.60 4.96 58.92 4.96L58.92 4.96Q55.20 4.96 54.08 7.60L54.08 7.60Q53.16 9.76 53.16 13.72L53.16 13.72L53.16 15.20Q53.16 20.36 54.60 22.16L54.60 22.16Q55.16 22.92 56.26 23.46Q57.36 24 58.90 24Q60.44 24 61.52 23.48Q62.60 22.96 63.20 22.20Q63.80 21.44 64.12 20.20L64.12 20.20Q64.68 18.24 64.68 15.20ZM93.64 0.24L93.64 5.20L86.00 5.20L86.00 28.72L80.44 28.72L80.44 5.20L72.84 5.20L72.84 0.24L93.64 0.24ZM118.60 20.52L118.60 20.52Q118.60 24.48 116.46 26.60Q114.32 28.72 110.48 28.72L110.48 28.72L106.64 28.72Q101.92 28.72 99.94 27.08Q97.96 25.44 97.96 21.40L97.96 21.40L97.96 0.24L110.00 0.24Q114.08 0.24 116.14 2.28Q118.20 4.32 118.20 8.04L118.20 8.04Q118.20 10.20 117.10 11.72Q116.00 13.24 114.68 13.88L114.68 13.88Q118.60 15.72 118.60 20.52ZM103.52 11.36L109.56 11.36Q112.64 11.36 112.64 8.28Q112.64 5.20 109.56 5.20L109.56 5.20L103.52 5.20L103.52 11.36ZM113.04 20.24L113.04 20.24Q113.04 18.32 112.36 17.34Q111.68 16.36 109.92 16.36L109.92 16.36L103.52 16.36L103.52 20.84Q103.52 22.48 104.34 23.12Q105.16 23.76 107.04 23.76L107.04 23.76L109.92 23.76Q113.04 23.76 113.04 20.24ZM136.76 2.64L145.88 28.72L140.08 28.72L138.48 23.80L128.92 23.80L127.36 28.72L121.56 28.72L130.68 2.64Q131.28 1.28 132.02 0.76Q132.76 0.24 133.84 0.24Q134.92 0.24 135.58 0.72Q136.24 1.20 136.76 2.64L136.76 2.64ZM130.32 19.12L137.20 19.12L133.84 7.84L130.32 19.12ZM167.36 23.76L167.36 28.72L158.88 28.72Q154.08 28.72 151.94 26.86Q149.80 25 149.80 20.80L149.80 20.80L149.80 0.24L155.36 0.24L155.36 20.80Q155.36 22.48 156.12 23.12Q156.88 23.76 158.88 23.76L158.88 23.76L167.36 23.76ZM189.36 23.76L189.36 28.72L180.88 28.72Q176.08 28.72 173.94 26.86Q171.80 25 171.80 20.80L171.80 20.80L171.80 0.24L177.36 0.24L177.36 20.80Q177.36 22.48 178.12 23.12Q178.88 23.76 180.88 23.76L180.88 23.76L189.36 23.76Z" transform="translate(98.227 12) scale(1)"></path><path fill="white" fill-rule="nonzero" d="M17.98 2.70Q20.44 5.16 20.44 9.92Q20.44 14.68 17.98 17.14Q15.52 19.60 11.04 19.60L11.04 19.60L5.56 19.60L5.56 28.72L0 28.72L0 0.24L11.04 0.24Q15.52 0.24 17.98 2.70ZM14.88 9.92L14.88 9.92Q14.88 5.20 10.76 5.20L10.76 5.20L5.56 5.20L5.56 14.60L10.76 14.60Q12.76 14.60 13.82 13.52Q14.88 12.44 14.88 9.92ZM42.68 23.76L42.68 28.72L34.20 28.72Q29.40 28.72 27.26 26.86Q25.12 25 25.12 20.80L25.12 20.80L25.12 0.24L30.68 0.24L30.68 20.80Q30.68 22.48 31.44 23.12Q32.20 23.76 34.20 23.76L34.20 23.76L42.68 23.76ZM59.60 2.64L68.72 28.72L62.92 28.72L61.32 23.80L51.76 23.80L50.20 28.72L44.40 28.72L53.52 2.64Q54.12 1.28 54.86 0.76Q55.60 0.24 56.68 0.24Q57.76 0.24 58.42 0.72Q59.08 1.20 59.60 2.64L59.60 2.64ZM53.16 19.12L60.04 19.12L56.68 7.84L53.16 19.12ZM89.28 0.24L94.84 0.24L94.84 25.84Q94.84 27.16 94.04 28.10Q93.24 29.04 92.16 29.04L92.16 29.04Q89.40 29.04 87.64 25.84L87.64 25.84L77.80 10.44L77.80 28.72L72.24 28.72L72.24 0.24L77.60 0.24L89.28 18.88L89.28 0.24ZM106.16 0.24L106.16 28.72L100.60 28.72L100.60 0.24L106.16 0.24ZM129.44 0.24L135 0.24L135 25.84Q135 27.16 134.20 28.10Q133.40 29.04 132.32 29.04L132.32 29.04Q129.56 29.04 127.80 25.84L127.80 25.84L117.96 10.44L117.96 28.72L112.40 28.72L112.40 0.24L117.76 0.24L129.44 18.88L129.44 0.24ZM139 15.32L139 15.32L139 11.80Q139 6.24 141.92 3.12Q144.84 0 150 0Q155.16 0 158.28 3.12L158.28 3.12Q160.48 5.32 160.48 9.72L160.48 9.72L155.28 9.72Q155.28 4.96 150.20 4.96L150.20 4.96Q148.68 4.96 147.62 5.54Q146.56 6.12 146.04 6.88Q145.52 7.64 145.24 9.12Q144.96 10.60 144.92 11.60Q144.88 12.60 144.88 14.28Q144.88 15.96 144.90 16.54Q144.92 17.12 145.02 18.42Q145.12 19.72 145.34 20.28Q145.56 20.84 145.98 21.72Q146.40 22.60 147.04 22.96L147.04 22.96Q148.68 24 150.76 24L150.76 24Q154.24 24 155.68 21.04L155.68 21.04L155.68 19.12L152.24 19.12L152.24 14.48L160.44 14.48L160.44 23.08Q159.20 26 156.52 27.48Q153.84 28.96 150.44 28.96L150.44 28.96Q144.40 28.96 141.70 25.58Q139 22.20 139 15.32Z" transform="translate(98.227 48.96) scale(1.18)"></path></svg>